<?xml version="1.0" encoding="UTF-8"?><svg id="a" xmlns="http://www.w3.org/2000/svg" viewBox="0 0 250 150"><defs><style>.b{fill:#ffdafe;}.b,.c{stroke-width:0px;}.c{fill:#fff;}</style></defs><rect class="b" width="250" height="150"/><path class="c" d="M75.4,123.5h9c3.8,0,6.9,3.1,6.9,6.9h0c0,3.8-3.1,6.9-6.9,6.9h-9c-3.8,0-6.9-3.1-6.9-6.9h0c0-3.8,3.1-6.9,6.9-6.9Z"/><circle class="c" cx="79.9" cy="115.2" r="5.4"/><path class="c" d="M75.4,75.5h9c3.8,0,6.9,3.1,6.9,6.9h0c0,3.8-3.1,6.9-6.9,6.9h-9c-3.8,0-6.9-3.1-6.9-6.9h0c0-3.8,3.1-6.9,6.9-6.9Z"/><circle class="c" cx="79.9" cy="67.2" r="5.4"/><path class="c" d="M75.4,27.5h9c3.8,0,6.9,3.1,6.9,6.9h0c0,3.8-3.1,6.9-6.9,6.9h-9c-3.8,0-6.9-3.1-6.9-6.9h0c0-3.8,3.1-6.9,6.9-6.9Z"/><circle class="c" cx="79.9" cy="19.2" r="5.4"/><path class="c" d="M121.4,123.5h8c3.8,0,6.9,3.1,6.9,6.9h0c0,3.8-3.1,6.9-6.9,6.9h-8c-3.8,0-6.9-3.1-6.9-6.9h0c0-3.8,3.1-6.9,6.9-6.9Z"/><ellipse class="c" cx="125.4" cy="115.2" rx="5.2" ry="5.4"/><path class="c" d="M121.4,75.5h8c3.8,0,6.9,3.1,6.9,6.9h0c0,3.8-3.1,6.9-6.9,6.9h-8c-3.8,0-6.9-3.1-6.9-6.9h0c0-3.8,3.1-6.9,6.9-6.9Z"/><ellipse class="c" cx="125.4" cy="67.2" rx="5.2" ry="5.4"/><path class="c" d="M121.4,27.5h8c3.8,0,6.9,3.1,6.9,6.9h0c0,3.8-3.1,6.9-6.9,6.9h-8c-3.8,0-6.9-3.1-6.9-6.9h0c0-3.8,3.1-6.9,6.9-6.9Z"/><ellipse class="c" cx="125.4" cy="19.2" rx="5.2" ry="5.4"/><path class="c" d="M166.4,123.5h9c3.8,0,6.9,3.1,6.9,6.9h0c0,3.8-3.1,6.9-6.9,6.9h-9c-3.8,0-6.9-3.1-6.9-6.9h0c0-3.8,3.1-6.9,6.9-6.9Z"/><circle class="c" cx="170.9" cy="115.2" r="5.4"/><path class="c" d="M166.4,75.5h9c3.8,0,6.9,3.1,6.9,6.9h0c0,3.8-3.1,6.9-6.9,6.9h-9c-3.8,0-6.9-3.1-6.9-6.9h0c0-3.8,3.1-6.9,6.9-6.9Z"/><circle class="c" cx="170.9" cy="67.2" r="5.4"/><path class="c" d="M166.4,27.5h9c3.8,0,6.9,3.1,6.9,6.9h0c0,3.8-3.1,6.9-6.9,6.9h-9c-3.8,0-6.9-3.1-6.9-6.9h0c0-3.8,3.1-6.9,6.9-6.9Z"/><circle class="c" cx="170.9" cy="19.2" r="5.4"/><path class="c" d="M52.2,106.1h9.5c3.7,0,6.7,3,6.7,6.7h0c0,3.7-3,6.7-6.7,6.7h-9.5c-3.7,0-6.7-3-6.7-6.7h0c0-3.7,3-6.7,6.7-6.7Z"/><ellipse class="c" cx="56.9" cy="98" rx="5.4" ry="5.2"/><path class="c" d="M52.2,58.1h9.5c3.7,0,6.7,3,6.7,6.7h0c0,3.7-3,6.7-6.7,6.7h-9.5c-3.7,0-6.7-3-6.7-6.7h0c0-3.7,3-6.7,6.7-6.7Z"/><ellipse class="c" cx="56.9" cy="50" rx="5.4" ry="5.2"/><path class="c" d="M98.2,106.1h9.5c3.7,0,6.7,3,6.7,6.7h0c0,3.7-3,6.7-6.7,6.7h-9.5c-3.7,0-6.7-3-6.7-6.7h0c0-3.7,3-6.7,6.7-6.7Z"/><ellipse class="c" cx="102.9" cy="98" rx="5.4" ry="5.2"/><path class="c" d="M98.2,58.1h9.5c3.7,0,6.7,3,6.7,6.7h0c0,3.7-3,6.7-6.7,6.7h-9.5c-3.7,0-6.7-3-6.7-6.7h0c0-3.7,3-6.7,6.7-6.7Z"/><ellipse class="c" cx="102.9" cy="50" rx="5.4" ry="5.2"/><path class="c" d="M143.2,106.1h9.5c3.7,0,6.7,3,6.7,6.7h0c0,3.7-3,6.7-6.7,6.7h-9.5c-3.7,0-6.7-3-6.7-6.7h0c0-3.7,3-6.7,6.7-6.7Z"/><ellipse class="c" cx="147.9" cy="98" rx="5.4" ry="5.2"/><path class="c" d="M143.2,58.1h9.5c3.7,0,6.7,3,6.7,6.7h0c0,3.7-3,6.7-6.7,6.7h-9.5c-3.7,0-6.7-3-6.7-6.7h0c0-3.7,3-6.7,6.7-6.7Z"/><ellipse class="c" cx="147.9" cy="50" rx="5.4" ry="5.2"/><path class="c" d="M189.2,106.1h8.5c3.7,0,6.7,3,6.7,6.7h0c0,3.7-3,6.7-6.7,6.7h-8.5c-3.7,0-6.7-3-6.7-6.7h0c0-3.7,3-6.7,6.7-6.7Z"/><circle class="c" cx="193.4" cy="98" r="5.2"/><path class="c" d="M189.2,58.1h8.5c3.7,0,6.7,3,6.7,6.7h0c0,3.7-3,6.7-6.7,6.7h-8.5c-3.7,0-6.7-3-6.7-6.7h0c0-3.7,3-6.7,6.7-6.7Z"/><circle class="c" cx="193.4" cy="50" r="5.2"/></svg>