<?xml version="1.0" encoding="UTF-8"?><svg id="a" xmlns="http://www.w3.org/2000/svg" viewBox="0 0 250 150"><defs><style>.b{fill:#fff;}.b,.c{stroke-width:0px;}.c{fill:#d6f289;}</style></defs><rect class="c" width="250" height="150"/><path class="b" d="M16.8,128h9c3.8,0,6.9,3.1,6.9,6.9h0c0,3.8-3.1,6.9-6.9,6.9h-9c-3.8,0-6.9-3.1-6.9-6.9h0c0-3.8,3.1-6.9,6.9-6.9Z"/><circle class="b" cx="21.3" cy="119.6" r="5.4"/><path class="b" d="M16.8,80.6h9c3.8,0,6.9,3.1,6.9,6.9h0c0,3.8-3.1,6.9-6.9,6.9h-9c-3.8,0-6.9-3.1-6.9-6.9h0c0-3.8,3.1-6.9,6.9-6.9Z"/><circle class="b" cx="21.3" cy="72.2" r="5.4"/><path class="b" d="M61.2,128h9c3.8,0,6.9,3.1,6.9,6.9h0c0,3.8-3.1,6.9-6.9,6.9h-9c-3.8,0-6.9-3.1-6.9-6.9h0c0-3.8,3.1-6.9,6.9-6.9Z"/><circle class="b" cx="65.7" cy="119.6" r="5.4"/><path class="b" d="M61.2,33.2h9c3.8,0,6.9,3.1,6.9,6.9h0c0,3.8-3.1,6.9-6.9,6.9h-9c-3.8,0-6.9-3.1-6.9-6.9h0c0-3.8,3.1-6.9,6.9-6.9Z"/><circle class="b" cx="65.7" cy="24.8" r="5.4"/><path class="b" d="M106.6,128h8c3.8,0,6.9,3.1,6.9,6.9h0c0,3.8-3.1,6.9-6.9,6.9h-8c-3.8,0-6.9-3.1-6.9-6.9h0c0-3.8,3.1-6.9,6.9-6.9Z"/><ellipse class="b" cx="110.7" cy="119.6" rx="5.2" ry="5.4"/><path class="b" d="M106.6,33.2h8c3.8,0,6.9,3.1,6.9,6.9h0c0,3.8-3.1,6.9-6.9,6.9h-8c-3.8,0-6.9-3.1-6.9-6.9h0c0-3.8,3.1-6.9,6.9-6.9Z"/><ellipse class="b" cx="110.6" cy="24.8" rx="5.2" ry="5.4"/><path class="b" d="M151.1,128h9c3.8,0,6.9,3.1,6.9,6.9h0c0,3.8-3.1,6.9-6.9,6.9h-9c-3.8,0-6.9-3.1-6.9-6.9h0c0-3.8,3.1-6.9,6.9-6.9Z"/><circle class="b" cx="155.6" cy="119.6" r="5.4"/><path class="b" d="M151.1,80.6h9c3.8,0,6.9,3.1,6.9,6.9h0c0,3.8-3.1,6.9-6.9,6.9h-9c-3.8,0-6.9-3.1-6.9-6.9h0c0-3.8,3.1-6.9,6.9-6.9Z"/><circle class="b" cx="155.6" cy="72.2" r="5.4"/><path class="b" d="M195.5,128h9c3.8,0,6.9,3.1,6.9,6.9h0c0,3.8-3.1,6.9-6.9,6.9h-9c-3.8,0-6.9-3.1-6.9-6.9h0c0-3.8,3.1-6.9,6.9-6.9Z"/><circle class="b" cx="200" cy="119.6" r="5.4"/><path class="b" d="M195.5,80.6h9c3.8,0,6.9,3.1,6.9,6.9h0c0,3.8-3.1,6.9-6.9,6.9h-9c-3.8,0-6.9-3.1-6.9-6.9h0c0-3.8,3.1-6.9,6.9-6.9Z"/><circle class="b" cx="200" cy="72.2" r="5.4"/><path class="b" d="M38.3,110.8h9.5c3.7,0,6.7,3,6.7,6.7h0c0,3.7-3,6.7-6.7,6.7h-9.5c-3.7,0-6.7-3-6.7-6.7h0c0-3.7,3-6.7,6.7-6.7Z"/><ellipse class="b" cx="43" cy="102.7" rx="5.4" ry="5.2"/><path class="b" d="M83.7,110.8h9.5c3.7,0,6.7,3,6.7,6.7h0c0,3.7-3,6.7-6.7,6.7h-9.5c-3.7,0-6.7-3-6.7-6.7h0c0-3.7,3-6.7,6.7-6.7Z"/><ellipse class="b" cx="88.4" cy="102.7" rx="5.4" ry="5.2"/><path class="b" d="M128.1,110.8h9.5c3.7,0,6.7,3,6.7,6.7h0c0,3.7-3,6.7-6.7,6.7h-9.5c-3.7,0-6.7-3-6.7-6.7h0c0-3.7,3-6.7,6.7-6.7Z"/><ellipse class="b" cx="132.9" cy="102.7" rx="5.4" ry="5.2"/><path class="b" d="M173.6,110.8h8.5c3.7,0,6.7,3,6.7,6.7h0c0,3.7-3,6.7-6.7,6.7h-8.5c-3.7,0-6.7-3-6.7-6.7h0c0-3.7,3-6.7,6.7-6.7Z"/><circle class="b" cx="177.8" cy="102.7" r="5.2"/><path class="b" d="M218,110.8h8.5c3.7,0,6.7,3,6.7,6.7h0c0,3.7-3,6.7-6.7,6.7h-8.5c-3.7,0-6.7-3-6.7-6.7h0c0-3.7,3-6.7,6.7-6.7Z"/><circle class="b" cx="222.3" cy="102.7" r="5.2"/><path class="b" d="M173.6,63.4h8.5c3.7,0,6.7,3,6.7,6.7h0c0,3.7-3,6.7-6.7,6.7h-8.5c-3.7,0-6.7-3-6.7-6.7h0c0-3.7,3-6.7,6.7-6.7Z"/><circle class="b" cx="177.8" cy="55.3" r="5.2"/><path class="b" d="M218,63.4h8.5c3.7,0,6.7,3,6.7,6.7h0c0,3.7-3,6.7-6.7,6.7h-8.5c-3.7,0-6.7-3-6.7-6.7h0c0-3.7,3-6.7,6.7-6.7Z"/><circle class="b" cx="222.3" cy="55.3" r="5.2"/></svg>