<?xml version="1.0" encoding="UTF-8"?><svg id="a" xmlns="http://www.w3.org/2000/svg" viewBox="0 0 250 150"><defs><style>.b{fill:#d9d9d9;}.b,.c{stroke-width:0px;}.c{fill:#fff;}</style></defs><rect class="c" width="250" height="150"/><path class="b" d="M16.9,124.2h9c3.8,0,6.9,3.1,6.9,6.9h0c0,3.8-3.1,6.9-6.9,6.9h-9c-3.8,0-6.9-3.1-6.9-6.9h0c0-3.8,3.1-6.9,6.9-6.9Z"/><circle class="b" cx="21.4" cy="115.8" r="5.4"/><path class="b" d="M16.9,81.5h9c3.8,0,6.9,3.1,6.9,6.9h0c0,3.8-3.1,6.9-6.9,6.9h-9c-3.8,0-6.9-3.1-6.9-6.9h0c0-3.8,3.1-6.9,6.9-6.9Z"/><circle class="b" cx="21.4" cy="73.1" r="5.4"/><path class="b" d="M16.9,38.7h9c3.81,0,6.9,3.07,6.9,6.85h0c0,3.78-3.09,6.85-6.9,6.85h-9c-3.81,0-6.9-3.07-6.9-6.85h0c0-3.78,3.09-6.85,6.9-6.85Z"/><circle class="b" cx="21.4" cy="30.3" r="5.4"/><path class="b" d="M61.9,124.2h9c3.8,0,6.9,3.1,6.9,6.9h0c0,3.8-3.1,6.9-6.9,6.9h-9c-3.8,0-6.9-3.1-6.9-6.9h0c0-3.8,3.1-6.9,6.9-6.9Z"/><circle class="b" cx="66.4" cy="115.8" r="5.4"/><path class="b" d="M61.9,81.5h9c3.8,0,6.9,3.1,6.9,6.9h0c0,3.8-3.1,6.9-6.9,6.9h-9c-3.8,0-6.9-3.1-6.9-6.9h0c0-3.8,3.1-6.9,6.9-6.9Z"/><circle class="b" cx="66.4" cy="73.1" r="5.4"/><path class="b" d="M61.9,38.7h9c3.81,0,6.9,3.07,6.9,6.85h0c0,3.78-3.09,6.85-6.9,6.85h-9c-3.81,0-6.9-3.07-6.9-6.85h0c0-3.78,3.09-6.85,6.9-6.85Z"/><circle class="b" cx="66.4" cy="30.3" r="5.4"/><path class="b" d="M107.9,124.2h8c3.8,0,6.9,3.1,6.9,6.9h0c0,3.8-3.1,6.9-6.9,6.9h-8c-3.8,0-6.9-3.1-6.9-6.9h0c0-3.8,3.1-6.9,6.9-6.9Z"/><ellipse class="b" cx="111.9" cy="115.8" rx="5.2" ry="5.4"/><path class="b" d="M107.9,81.5h8c3.8,0,6.9,3.1,6.9,6.9h0c0,3.8-3.1,6.9-6.9,6.9h-8c-3.8,0-6.9-3.1-6.9-6.9h0c0-3.8,3.1-6.9,6.9-6.9Z"/><ellipse class="b" cx="111.9" cy="73.1" rx="5.2" ry="5.4"/><path class="b" d="M107.9,38.7h8c3.81,0,6.9,3.07,6.9,6.85h0c0,3.78-3.09,6.85-6.9,6.85h-8c-3.81,0-6.9-3.07-6.9-6.85h0c0-3.78,3.09-6.85,6.9-6.85Z"/><ellipse class="b" cx="111.9" cy="30.3" rx="5.2" ry="5.4"/><path class="b" d="M152.9,124.2h9c3.8,0,6.9,3.1,6.9,6.9h0c0,3.8-3.1,6.9-6.9,6.9h-9c-3.8,0-6.9-3.1-6.9-6.9h0c0-3.8,3.1-6.9,6.9-6.9Z"/><circle class="b" cx="157.4" cy="115.8" r="5.4"/><path class="b" d="M152.9,81.5h9c3.8,0,6.9,3.1,6.9,6.9h0c0,3.8-3.1,6.9-6.9,6.9h-9c-3.8,0-6.9-3.1-6.9-6.9h0c0-3.8,3.1-6.9,6.9-6.9Z"/><circle class="b" cx="157.4" cy="73.1" r="5.4"/><path class="b" d="M152.9,38.7h9c3.81,0,6.9,3.07,6.9,6.85h0c0,3.78-3.09,6.85-6.9,6.85h-9c-3.81,0-6.9-3.07-6.9-6.85h0c0-3.78,3.09-6.85,6.9-6.85Z"/><circle class="b" cx="157.4" cy="30.3" r="5.4"/><path class="b" d="M197.9,124.2h9c3.8,0,6.9,3.1,6.9,6.9h0c0,3.8-3.1,6.9-6.9,6.9h-9c-3.8,0-6.9-3.1-6.9-6.9h0c0-3.8,3.1-6.9,6.9-6.9Z"/><circle class="b" cx="202.4" cy="115.8" r="5.4"/><path class="b" d="M197.9,81.5h9c3.8,0,6.9,3.1,6.9,6.9h0c0,3.8-3.1,6.9-6.9,6.9h-9c-3.8,0-6.9-3.1-6.9-6.9h0c0-3.8,3.1-6.9,6.9-6.9Z"/><circle class="b" cx="202.4" cy="73.1" r="5.4"/><path class="b" d="M197.9,38.7h9c3.81,0,6.9,3.07,6.9,6.85h0c0,3.78-3.09,6.85-6.9,6.85h-9c-3.81,0-6.9-3.07-6.9-6.85h0c0-3.78,3.09-6.85,6.9-6.85Z"/><circle class="b" cx="202.4" cy="30.3" r="5.4"/><path class="b" d="M38.7,106.8h9.5c3.7,0,6.7,3,6.7,6.7h0c0,3.7-3,6.7-6.7,6.7h-9.5c-3.7,0-6.7-3-6.7-6.7h0c0-3.7,3-6.7,6.7-6.7Z"/><ellipse class="b" cx="43.4" cy="98.7" rx="5.4" ry="5.2"/><path class="b" d="M38.7,64h9.5c3.7,0,6.7,3,6.7,6.7h0c0,3.7-3,6.7-6.7,6.7h-9.5c-3.7,0-6.7-3-6.7-6.7h0c0-3.7,3-6.7,6.7-6.7Z"/><ellipse class="b" cx="43.4" cy="55.9" rx="5.4" ry="5.2"/><path class="b" d="M38.7,21.3h9.5c3.7,0,6.7,3,6.7,6.7h0c0,3.7-3,6.7-6.7,6.7h-9.5c-3.7,0-6.7-3-6.7-6.7h0c0-3.7,3-6.7,6.7-6.7Z"/><ellipse class="b" cx="43.4" cy="13.2" rx="5.4" ry="5.2"/><path class="b" d="M84.7,106.8h9.5c3.7,0,6.7,3,6.7,6.7h0c0,3.7-3,6.7-6.7,6.7h-9.5c-3.7,0-6.7-3-6.7-6.7h0c0-3.7,3-6.7,6.7-6.7Z"/><ellipse class="b" cx="89.4" cy="98.7" rx="5.4" ry="5.2"/><path class="b" d="M84.7,64h9.5c3.7,0,6.7,3,6.7,6.7h0c0,3.7-3,6.7-6.7,6.7h-9.5c-3.7,0-6.7-3-6.7-6.7h0c0-3.7,3-6.7,6.7-6.7Z"/><ellipse class="b" cx="89.4" cy="55.9" rx="5.4" ry="5.2"/><path class="b" d="M84.7,21.3h9.5c3.7,0,6.7,3,6.7,6.7h0c0,3.7-3,6.7-6.7,6.7h-9.5c-3.7,0-6.7-3-6.7-6.7h0c0-3.7,3-6.7,6.7-6.7Z"/><ellipse class="b" cx="89.4" cy="13.2" rx="5.4" ry="5.2"/><path class="b" d="M129.7,106.8h9.5c3.7,0,6.7,3,6.7,6.7h0c0,3.7-3,6.7-6.7,6.7h-9.5c-3.7,0-6.7-3-6.7-6.7h0c0-3.7,3-6.7,6.7-6.7Z"/><ellipse class="b" cx="134.4" cy="98.7" rx="5.4" ry="5.2"/><path class="b" d="M129.7,64h9.5c3.7,0,6.7,3,6.7,6.7h0c0,3.7-3,6.7-6.7,6.7h-9.5c-3.7,0-6.7-3-6.7-6.7h0c0-3.7,3-6.7,6.7-6.7Z"/><ellipse class="b" cx="134.4" cy="55.9" rx="5.4" ry="5.2"/><path class="b" d="M129.7,21.3h9.5c3.7,0,6.7,3,6.7,6.7h0c0,3.7-3,6.7-6.7,6.7h-9.5c-3.7,0-6.7-3-6.7-6.7h0c0-3.7,3-6.7,6.7-6.7Z"/><ellipse class="b" cx="134.4" cy="13.2" rx="5.4" ry="5.2"/><path class="b" d="M175.7,106.8h8.5c3.7,0,6.7,3,6.7,6.7h0c0,3.7-3,6.7-6.7,6.7h-8.5c-3.7,0-6.7-3-6.7-6.7h0c0-3.7,3-6.7,6.7-6.7Z"/><circle class="b" cx="179.9" cy="98.7" r="5.2"/><path class="b" d="M220.7,106.8h8.5c3.7,0,6.7,3,6.7,6.7h0c0,3.7-3,6.7-6.7,6.7h-8.5c-3.7,0-6.7-3-6.7-6.7h0c0-3.7,3-6.7,6.7-6.7Z"/><circle class="b" cx="224.9" cy="98.7" r="5.2"/><path class="b" d="M175.7,64h8.5c3.7,0,6.7,3,6.7,6.7h0c0,3.7-3,6.7-6.7,6.7h-8.5c-3.7,0-6.7-3-6.7-6.7h0c0-3.7,3-6.7,6.7-6.7Z"/><circle class="b" cx="179.9" cy="55.9" r="5.2"/><path class="b" d="M175.7,21.3h8.5c3.7,0,6.7,3,6.7,6.7h0c0,3.7-3,6.7-6.7,6.7h-8.5c-3.7,0-6.7-3-6.7-6.7h0c0-3.7,3-6.7,6.7-6.7Z"/><circle class="b" cx="179.9" cy="13.2" r="5.2"/><path class="b" d="M220.7,64h8.5c3.7,0,6.7,3,6.7,6.7h0c0,3.7-3,6.7-6.7,6.7h-8.5c-3.7,0-6.7-3-6.7-6.7h0c0-3.7,3-6.7,6.7-6.7Z"/><circle class="b" cx="224.9" cy="55.9" r="5.2"/><path class="b" d="M220.7,21.3h8.5c3.7,0,6.7,3,6.7,6.7h0c0,3.7-3,6.7-6.7,6.7h-8.5c-3.7,0-6.7-3-6.7-6.7h0c0-3.7,3-6.7,6.7-6.7Z"/><circle class="b" cx="224.9" cy="13.2" r="5.2"/></svg>