<?xml version="1.0" encoding="UTF-8"?>
<svg xmlns="http://www.w3.org/2000/svg" width="530" height="143" viewBox="0 0 530 143">
  <path d="M171.2 14h-.1v29c0 5.7 0 7.4 6.4 7.4v1.3h-15.7v-1.3c6.4 0 6.4-1.7 6.4-7.4V15.3c0-5.4-.7-7.3-6.4-7.3V6.8h12.7l16.3 35 16-35h12.8V8c-6.4 0-6.4 1.7-6.4 7.4V43c0 5.7 0 7.4 6.4 7.4v1.3h-19.2v-1.3c6.4 0 6.4-1.7 6.4-7.4V14h-.1l-17.2 37.7h-1L171.2 14zM223 33.8c0-10 6.9-18.8 17.5-18.8 10.7 0 17.6 8.8 17.6 18.8s-6.9 18.8-17.6 18.8c-10.6 0-17.5-8.8-17.5-18.8zm29 0c0-8-2.6-16.8-11.5-16.8S229 25.6 229 33.7s2.6 16.8 11.5 16.8c9 0 11.5-8.7 11.5-16.8zm17 11c0 4.6 0 6 5 6v1h-12.5v-1c5 0 5-1.4 5-6V20.6c-1.9-2.5-3.4-3.8-7-3.8v-1h9.7L291 42.6h.1v-20c0-4.5 0-5.9-5.1-5.9v-1h12.5v1c-5 0-5 1.4-5 6v29.5h-1l-23.6-28.8v21.4zm36.4-22c0-4.6 0-6-5-6v-1H314c5 0 10.8.2 15 3 5 3.3 7.2 9 7.2 14.8 0 9.9-6.4 18.2-19.4 18.2h-16.7v-1c5.1 0 5.1-1.4 5.1-6v-22zm5.1 26.3c1.9.4 3.8.7 5.7.7 9.2 0 14.2-7.3 14.2-16 0-8.9-5-16-14.5-16a20 20 0 0 0-5.4.8V49zm39.2-17h7.2c4.3 0 6-.5 6.3-5.4h1v12.6h-1c-.5-4.8-2-5.3-6.3-5.3h-7.2v13c0 2.3.6 2.8 2.9 2.8h7.4c4.8 0 6.5-2.2 9.3-7h1l-3 9h-27.8v-1c5 0 5-1.4 5-6v-22c0-4.6 0-6-5-6v-1h27.5l.5 8h-1c-1-5.6-2.6-6-7.7-6h-9.1v14.2z" fill="#BE2E0D"></path>
  <path d="M185.3 11.6c0 .8 0 1.4.7 1.4h2.2c1.3 0 2-.5 2.7-2.3h.2l-.9 3h-7.8v-.3c1.4 0 1.4-.4 1.4-1.8V4.8c0-1.4 0-1.8-1.4-1.8v-.3h4.6V3c-1.7 0-1.7.5-1.7 2v6.6zm9.3-4h2c1.3 0 1.7 0 1.8-1.6h.3V10h-.3c0-1.5-.5-1.6-1.7-1.6h-2v4c0 .7.1.8.8.8h2c1.4 0 1.9-.7 2.7-2.1h.3l-.9 2.7h-7.8v-.3c1.4 0 1.4-.4 1.4-1.8V4.8c0-1.4 0-1.8-1.4-1.8v-.3h7.7l.2 2.4h-.3c-.3-1.7-.7-1.8-2.2-1.8h-2.6v4.4zM38 105.5c-.1.8-1 3.8-1 4.7 0 .7.4 1.7 1.3 1.7 2.1 0 6-5.1 7.3-6.6l1.6 1c-3 4-8.6 11.2-14 11.2-2.8 0-4-2.2-4-4.7 0-3.1 1.5-7.7 3.5-13.6l-.2-.2c-4.2 6.8-12.1 18.5-21 18.5-6.6 0-9.4-7.3-9.4-12.9C2.1 90 18.1 71 31 71c3.7 0 6.4 1.9 8.3 4.8l4.3-15.1c1.5-5.1 2.2-7 2.2-8.4 0-2.4-2.5-2.8-4.3-2.8-1 0-2 .2-3.1.4v-2l16.3-2.7h1l-17.5 60.3zm-7.4-32c-9.7 0-20.2 19.5-20.2 30.2 0 3.4 1.5 7.9 5.5 7.9 8.3 0 21.2-21.3 21.2-30.8 0-4-2.4-7.3-6.5-7.3zm33 33.8c-.3 1-.7 2.3-.7 3.3 0 .9.5 1.3 1.4 1.3 2.4 0 6.3-5 7.7-7l1.7 1.2c-2.7 4.2-9 11.4-14.3 11.4-2.9 0-4.8-1.7-4.8-4.7 0-1.6 1.2-5.4 1.6-7l5.4-19.3c1.5-5.1 2.2-7 2.2-8.4 0-2.3-2.5-2.8-4.3-2.8-1 0-2 .2-3 .5v-2L72.6 71h1l-10.1 36.3zm9.3-56.1a5 5 0 0 1 5 5 5 5 0 0 1-5 5 5 5 0 0 1-5-5 5 5 0 0 1 5-5zm24 31.2l.3.2c4.5-5.8 10.4-11.6 18.4-11.6 6.5 0 10.4 6.2 10.4 12.7 0 13.2-12.5 33.8-29.8 33.8a15 15 0 0 1-8.5-2.5l-3.3 11.7c-.5 1.7-1.5 4.5-1.5 6.2 0 3.4 4.6 3.4 7.6 3.4L90 138H66.5l.5-1.8c5.7 0 7.3-1.2 9.4-8.2l12-41.6c1.4-5.1 2.1-7 2.1-8.4 0-2.3-2.4-2.8-4.3-2.8-1 0-2 .2-3 .5v-2L99.4 71h1L97 82.4zm-8.1 28.7a11 11 0 0 0 8.6 3.7c9.5 0 20.3-17.1 20.3-30.9 0-4-1.6-8.5-6.4-8.5-5.2 0-13.8 5.7-19 23.3l-3.5 12.4zm48.6-3.8c-.3 1-.7 2.3-.7 3.3 0 .9.5 1.3 1.5 1.3 2.3 0 6.2-5 7.6-7l1.8 1.2c-2.8 4.2-9 11.4-14.4 11.4-2.8 0-4.8-1.7-4.8-4.7 0-1.6 1.3-5.4 1.7-7l12.8-45.1c1.4-5.1 2.1-7 2.1-8.4 0-2.4-2.4-2.8-4.3-2.8-1 0-2 .2-3 .4v-2l16.2-2.7h1l-17.5 62.1zm17.2-5.5c0-15 14.2-30.8 29.5-30.8 9.3 0 15 7.1 15 16 0 14.8-13.3 30.5-28.6 30.5-9.4 0-15.9-6.3-15.9-15.7zM190.8 83c0-5-2.7-9.5-8.2-9.5-11.2 0-19.7 20.3-19.7 31.6 0 5.6 3 10 8.8 10 9.6 0 19.1-17.8 19.1-32zm26.4 10l.2.2C221.1 86 230 71 239.4 71c3.4 0 5.7 2.6 5.7 5.9 0 2.2-.8 5.4-1.4 7.5l-3.2 10.8.2.2c3.9-7.2 13.5-24.4 23-24.4 3.5 0 5.8 2.8 5.8 6 0 4-.7 6-4.8 19.9-1.7 5.3-4 12.6-4 13.5 0 .7.6 1.5 1.4 1.5 2 0 6-5 7.2-6.7l1.6.9c-2.7 4.5-8.9 11.4-13.7 11.4a4.1 4.1 0 0 1-4.3-4.3c0-2.2 1.2-6.5 4.6-18 3.3-11.4 4-13.8 4-15.7 0-1.5-.6-2.5-2.4-2.5-6.4 0-18.5 20.6-21.9 31.1l-2.7 8.2h-7.4l8.2-29c.5-2 1.7-5.7 1.7-7.7 0-1.3-.4-2.6-2.6-2.6-5.3 0-17.7 17.3-22.3 34l-1.4 5.3h-7.5l8.4-29.8c1.4-5.1 2.1-7 2.1-8.4 0-2.3-2.4-2.8-4.3-2.8-1 0-2 .2-3 .5v-2l16.3-2.8h1l-6.5 22zm95.9 13.8c-.3 1.3-.8 2.9-.8 4.2 0 .7.4 1.5 1.2 1.5 2.3 0 5.4-4.5 7.2-6.8l1.6 1.2c-3 4.3-8 10.6-13.8 10.6-2.6 0-4.3-1.4-4.3-4 0-2.3 1.4-8.8 2-10l-.2-.2c-4.5 6-11.2 14.2-19.6 14.2-6.2 0-9.1-6.3-9.1-11.5 0-16.7 16.3-35 28-35 4.5 0 7.3 2.7 8.2 6.8h.2l1.7-5.5 7.8-1.3-10.1 35.8zm-7.8-33.3c-8.8 0-19.8 19-19.8 30.7 0 3.3 1.9 7.4 5.8 7.4 6.2 0 20.3-13.4 20.3-30 0-4.3-1.4-8.1-6.3-8.1zm43.4-1.2h8l-.9 3.2H348l-8.2 28.2c-.5 1.8-1.7 5.5-1.7 7.4 0 .7.3 1.7 1.3 1.7 3.1 0 7-5.8 8.4-7.9l1.8 1.2c-2.8 4.2-9 11.4-14.4 11.4-2.8 0-4.8-1.7-4.8-4.7 0-1.6 1-5.5 1.3-7l8.6-30.3h-7.5l.5-2c8.4-2 12-6.5 17.3-14.9h2.1l-3.9 13.7zm20.1 35c-.3 1-.7 2.3-.7 3.3 0 .9.5 1.3 1.4 1.3 2.4 0 6.3-5 7.7-7l1.8 1.2c-2.8 4.2-9 11.4-14.4 11.4-2.8 0-4.8-1.7-4.8-4.7 0-1.6 1.2-5.4 1.7-7l5.4-19.3c1.4-5.1 2.1-7 2.1-8.4 0-2.3-2.4-2.8-4.3-2.8-1 0-2 .2-3 .5v-2l16.2-2.8h1l-10 36.3zm9.3-56.1a5 5 0 0 1 5 5 5 5 0 0 1-5 5 5 5 0 0 1-5-5 5 5 0 0 1 5-5zm38.1 75.5c-.5 1.7-1.4 4.5-1.4 6.2 0 3.4 4.5 3.4 6.6 3.4l-.5 1.8h-23.6l.5-1.8c6.8 0 8.4-1.2 10.5-8.2l7.7-26.6-.2-.2c-4 6.1-11.6 16.2-20.4 16.2-6.6 0-9.4-7.3-9.4-12.9C386 90 402 71 414.8 71c3.8 0 6.8 2.4 8.1 7.3h.2l1.5-6 7.7-1.3-16 55.7zm4.8-46c0-3.8-2.8-7.2-6.5-7.2-9.7 0-20.2 19.5-20.2 30.2 0 3.4 1.5 7.9 5.5 7.9 7.5 0 21.2-17.6 21.2-31zm51.8 20.1c-.6 2.1-2.4 7.8-2.4 9.6 0 .8.2 1.5 1.3 1.5 2 0 3.7-1.7 7-6.6l1.6 1c-2.6 4.3-8 11.2-13.4 11.2-2.4 0-4.1-1.3-4.1-4 0-4 1.5-9.7 5-20l-.2-.1c-4.3 7.1-14.6 24.1-24.5 24.1-3.5 0-5.5-2.6-5.5-6 0-3.5 1.5-8.8 2.5-12.4 4.5-15.7 5.5-18.2 5.5-20.9 0-.7-.3-1.5-1.3-1.5-2.6 0-5.2 4.3-6.8 6.1l-1.6-1c2.6-4.2 8.5-10.8 13.7-10.8 2.7 0 4.3 1.7 4.3 4.3 0 2.3-.4 4-5 20.5-1.7 5.8-3.6 10.5-3.6 13.5 0 1.5 1 2.3 2.3 2.3 5.1 0 19-14 24.7-34.8l1.2-4.5 8.1-1.3-8.8 29.8zm51.6 5c-6 6-13.8 11.7-22.7 11.7-12 0-14.6-11-14.6-15 0-15 14.9-31.5 30.2-31.5 4.8 0 10.7 1.6 10.7 7.4 0 10.9-16.2 17.6-31.9 19.2-.2 1.2-.4 2.6-.4 4 0 6.3 5.2 10.7 11.2 10.7 6 0 10.7-3.5 16.5-8l1 1.5zm-3.6-27.5c0-3-2-4.8-5-4.8-9.8 0-17.6 12.8-19.2 21.5 17.5-2 24.2-11.3 24.2-16.7z" fill="#BE2E0D"></path>
</svg>
